<svg xmlns="http://www.w3.org/2000/svg" xmlns:xlink="http://www.w3.org/1999/xlink" viewBox="0 0 440 72"><defs><style>.cls-1{fill:#006837;}.cls-2{fill:url(#radial-gradient);}.cls-3{fill:#4d4d4d;}.cls-4{opacity:0.22;fill:url(#radial-gradient-2);}</style><radialGradient id="radial-gradient" cx="220" cy="36.5" r="237.9" gradientUnits="userSpaceOnUse"><stop offset="0" stop-color="#a8ffb3"/><stop offset="0.62" stop-color="#389b61"/><stop offset="0.96" stop-color="#006837"/></radialGradient><radialGradient id="radial-gradient-2" cx="220" cy="36" r="245.35" gradientUnits="userSpaceOnUse"><stop offset="0" stop-color="#8cc63f"/><stop offset="0.55" stop-color="#388e3a"/><stop offset="0.96" stop-color="#006837"/></radialGradient></defs><g id="Layer_2" data-name="Layer 2"><rect class="cls-1" x="6" y="6" width="428" height="61"/><rect class="cls-2" x="6" y="6" width="428" height="61"/><path class="cls-3" d="M425.81,10A4.2,4.2,0,0,1,430,14.19V57.81A4.2,4.2,0,0,1,425.81,62H14.19A4.2,4.2,0,0,1,10,57.81V14.19A4.2,4.2,0,0,1,14.19,10H425.81m0-10H14.19A14.19,14.19,0,0,0,0,14.19V57.81A14.19,14.19,0,0,0,14.19,72H425.81A14.19,14.19,0,0,0,440,57.81V14.19A14.19,14.19,0,0,0,425.81,0Z"/><rect class="cls-4" width="440" height="72"/></g></svg>