<svg xmlns="http://www.w3.org/2000/svg" viewBox="0 0 440 72"><defs><style>.cls-1{fill:#3f0a00;}.cls-2{fill:#333;}</style></defs><g id="Layer_2" data-name="Layer 2"><rect class="cls-1" x="6" y="6" width="428" height="61"/><path class="cls-2" d="M425.81,10A4.2,4.2,0,0,1,430,14.19V57.81A4.2,4.2,0,0,1,425.81,62H14.19A4.2,4.2,0,0,1,10,57.81V14.19A4.2,4.2,0,0,1,14.19,10H425.81m0-10H14.19A14.19,14.19,0,0,0,0,14.19V57.81A14.19,14.19,0,0,0,14.19,72H425.81A14.19,14.19,0,0,0,440,57.81V14.19A14.19,14.19,0,0,0,425.81,0Z"/></g></svg>