<svg xmlns="http://www.w3.org/2000/svg" viewBox="0 0 660 1300"><defs><style>.cls-1{fill:none;stroke:#000;stroke-miterlimit:10;stroke-width:5px;}.cls-2{fill:aqua;}.cls-3{font-size:180.42px;font-family:MyriadPro-Regular, Myriad Pro;}</style></defs><g id="Layer_1" data-name="Layer 1"><path d="M348.69,1A145.31,145.31,0,0,1,494,146.31V1153.69A145.31,145.31,0,0,1,348.69,1299H311.31A145.31,145.31,0,0,1,166,1153.69V146.31A145.31,145.31,0,0,1,311.31,1h37.38m0-1H311.31A146.3,146.3,0,0,0,165,146.31V1153.69A146.3,146.3,0,0,0,311.31,1300h37.38A146.3,146.3,0,0,0,495,1153.69V146.31A146.3,146.3,0,0,0,348.69,0Z"/><line class="cls-1" x1="165.5" y1="182.5" x2="330.5" y2="182.5"/><line class="cls-1" x1="165.5" y1="339.5" x2="330.5" y2="339.5"/><line class="cls-1" x1="166" y1="810.5" x2="331" y2="810.5"/><line class="cls-1" x1="165" y1="653.5" x2="330" y2="653.5"/><line class="cls-1" x1="166" y1="496.5" x2="331" y2="496.5"/><line class="cls-1" x1="165" y1="955.5" x2="330" y2="955.5"/><path class="cls-2" d="M398.91,39.86c5.58,2.81,11.37,5.23,16.83,8.29,2.61,1.46,5.08,3.14,7.6,4.75L425,54c.58.39,2.12,1.83.43.23,1.17,1.12,2.4,2.15,3.53,3.32,2.17,2.24,4.26,4.58,6.44,6.83,1.08,1.11,2.2,2.17,3.21,3.35.19.23.36.48.56.7-1.44-1.54-.41-.55-.09-.12.44.59.86,1.19,1.3,1.78a56.25,56.25,0,0,0,3.65,4.63,41.68,41.68,0,0,0,3.07,2.87c.43.38.85.77,1.25,1.18.22.22.42.46.64.69.84.86-.45-.62-.45-.62.47.33.77,1.27,1,1.77.44.85.88,1.7,1.33,2.54,1.73,3.19,3.5,6.36,5.25,9.54,1.63,3,3.9,5.54,5.29,8.64l-.75-1.79c1.84,4.36,2,9.17,3.54,13.62,1.82,5.23,4.86,10,7,15.07l-.76-1.79A35.31,35.31,0,0,1,473,134.8l-.27-2c.42,3.12.39,6.27.63,9.41.27,3.61,1.17,7.08,1.66,10.65l-.27-2a81,81,0,0,1,.47,10.22c0,3.92,3.45,7.68,7.5,7.5a7.64,7.64,0,0,0,7.5-7.5c0-2.83,0-5.67-.27-8.49-.32-3.4-1.13-6.67-1.62-10l.27,2c-.39-3-.37-5.94-.58-8.92a40.21,40.21,0,0,0-1.89-10.26c-2-5.89-5.25-11.15-7.7-16.83l.76,1.79c-1.32-3.26-1.79-6.74-2.56-10.15A30.94,30.94,0,0,0,472,89.66c-2.16-3.22-4-6.58-5.87-10-2-3.56-3.65-7.43-6.29-10.57A33.85,33.85,0,0,0,456.6,66c-.58-.51-1.14-1-1.67-1.58a12,12,0,0,1-.82-.92c-.2-.23-.39-.46-.57-.7l.35.46c-1.25-1.7-2.49-3.41-3.8-5.06a58.27,58.27,0,0,0-4.06-4.4c-2.6-2.69-5.08-5.52-7.75-8.16-2.82-2.8-6.19-4.85-9.49-7C421.71,34,414,30.7,406.48,26.91c-3.5-1.76-8.29-1-10.26,2.69-1.8,3.41-1.05,8.38,2.69,10.26Z"/><path class="cls-2" d="M293.47,1269.33c-5-1.33-10-2.37-14.94-3.74a119.25,119.25,0,0,1-14.09-5l1.79.76a49.48,49.48,0,0,1-8.81-5.41c-1.28-.91-2.56-1.82-3.85-2.71-.77-.53-1.55-1.06-2.33-1.57l-.77-.5-.73-.51c-.63-.47-.47-.35.48.38a13.54,13.54,0,0,0-1.62-1.38l-1.89-1.7a46.43,46.43,0,0,0-4.78-3.84c-1.15-.8-2.4-1.45-3.61-2.16-.54-.33-1-.71-1.59-1,1.77,1,.83.68.33.21a9.75,9.75,0,0,1-.94-1c-4.38-5.23-8.69-10.49-13.52-15.3-.5-.5-1-1-1.47-1.53s-.94-1.55.16.29c-.19-.32-.45-.62-.65-.94a27.71,27.71,0,0,1-2-3.77,75.2,75.2,0,0,0-3.89-8.34,53,53,0,0,0-3.91-5.28l-1.65-2.07c-.27-.34-.54-.69-.82-1s-1.32-1.7-.49-.62-.09-.12-.21-.28l-1-1.41q-.76-1.07-1.47-2.16a35.67,35.67,0,0,1-2.76-5.08l.76,1.79a61,61,0,0,1-2.5-8.37,64.25,64.25,0,0,0-3.48-9.59l.76,1.8a67.74,67.74,0,0,1-3.51-12.43c-.8-3.85-5.54-6.43-9.23-5.24a7.67,7.67,0,0,0-5.23,9.22c.53,2.56,1.07,5.12,1.8,7.62a75.3,75.3,0,0,0,3.37,8.66l-.76-1.79c1.86,4.57,2.43,9.54,4.31,14.11,2.22,5.37,5.48,9.84,9.07,14.38.72.92,1.46,1.83,2.19,2.75l.54.69c.78,1-.28-.37-.35-.46.39.49.76,1,1.11,1.52a34,34,0,0,1,3,5.88,62.2,62.2,0,0,0,2.63,5.75,28.85,28.85,0,0,0,4.94,6.38c1.63,1.63,3.32,3.18,4.79,5,1.66,2,3.39,4,5.1,6a64.15,64.15,0,0,0,4.72,5.54,36.74,36.74,0,0,0,6.45,4.4c.44.26.88.52,1.3.81,1.39.94-1.07-.92,0-.07s1.94,1.67,2.89,2.53a54.49,54.49,0,0,0,6.62,5.2c4.19,2.76,8.12,6.08,12.52,8.5a72.48,72.48,0,0,0,8.62,3.64c2.63,1,5.24,2,7.94,2.82,5.52,1.64,11.17,2.77,16.73,4.26,3.78,1,8.32-1.27,9.22-5.24a7.64,7.64,0,0,0-5.23-9.23Z"/><text class="cls-3" transform="translate(63.85 244.89) scale(0.9 1)">F</text><text class="cls-3" transform="translate(63.96 1185.19) scale(0.9 1)">E</text><line class="cls-1" x1="165" y1="1100.5" x2="330" y2="1100.5"/></g></svg>