<svg id="Layer_1" data-name="Layer 1" xmlns="http://www.w3.org/2000/svg" viewBox="0 0 400 660"><defs><style>.cls-1,.cls-3,.cls-4,.cls-5{fill:#0d64f4;}.cls-2{fill:none;}.cls-2,.cls-4,.cls-5{stroke:#000;stroke-miterlimit:10;}.cls-2,.cls-4{stroke-width:2px;}.cls-3{fill-rule:evenodd;}</style></defs><polygon class="cls-1" points="126 476 126 230.91 273.5 230.5 274 476 126 476"/><path d="M272.5,231.51l.25,121.74L273,475H127V231.91l72.86-.2,72.64-.2m2-2-149.5.41V477H275q-.25-123.75-.5-247.5Z"/><path class="cls-2" d="M125,469H18c-.9-47.64,11.38-78.2,22.63-97.2C56.76,344.48,73.49,336.47,94.4,304a245.16,245.16,0,0,0,32.1-76.46A150.16,150.16,0,0,1,200,103.23a150.23,150.23,0,0,1,74.48,128.43A243.48,243.48,0,0,0,305.6,304c20.91,32.49,37.64,40.5,53.8,67.82,11.25,19,23.53,49.56,22.63,97.2H275"/><path class="cls-3" d="M125,469H18c-.9-47.64,11.38-78.2,22.63-97.2C56.76,344.48,73.49,336.47,94.4,304a245.16,245.16,0,0,0,32.1-76.46A150.16,150.16,0,0,1,200,103.23a150.23,150.23,0,0,1,74.48,128.43A243.48,243.48,0,0,0,305.6,304c20.91,32.49,37.64,40.5,53.8,67.82,11.25,19,23.53,49.56,22.63,97.2H275"/><path class="cls-4" d="M247,477a33.39,33.39,0,0,1,15,29H138a36.7,36.7,0,0,1,3-14,37.08,37.08,0,0,1,12-15"/><circle class="cls-4" cx="200" cy="183" r="21"/><line class="cls-5" x1="125" y1="469" x2="125" y2="230"/><line class="cls-5" x1="275" y1="469" x2="274" y2="229"/></svg>