<svg id="Layer_2" data-name="Layer 2" xmlns="http://www.w3.org/2000/svg" xmlns:xlink="http://www.w3.org/1999/xlink" viewBox="0 0 660 1300"><defs><style>.cls-1,.cls-4,.cls-5{fill:none;}.cls-2{clip-path:url(#clip-path);}.cls-3{fill:#ffec4b;fill-rule:evenodd;}.cls-4,.cls-5{stroke:#000;stroke-miterlimit:10;}.cls-5{stroke-width:5px;}.cls-6{fill:aqua;}.cls-7{font-size:162.44px;font-family:MyriadPro-Regular, Myriad Pro;}</style><clipPath id="clip-path"><rect class="cls-1" x="0.5" y="4" width="660" height="1300"/></clipPath></defs><g class="cls-2"><g class="cls-2"><path class="cls-3" d="M350.38,1303.5H311.61A145.61,145.61,0,0,1,166,1157.88V646.11A145.61,145.61,0,0,1,311.61,500.5h38.77A145.61,145.61,0,0,1,496,646.11v511.77A145.61,145.61,0,0,1,350.38,1303.5"/><path class="cls-4" d="M311.61,500.5h38.77A145.61,145.61,0,0,1,496,646.11v511.77A145.61,145.61,0,0,1,350.38,1303.5H311.61A145.61,145.61,0,0,1,166,1157.89V646.12A145.62,145.62,0,0,1,311.61,500.5Z"/></g><g class="cls-2"><path d="M349.19,5A145.31,145.31,0,0,1,494.5,150.31V1157.69A145.31,145.31,0,0,1,349.19,1303H311.81A145.31,145.31,0,0,1,166.5,1157.69V150.31A145.31,145.31,0,0,1,311.81,5h37.38m0-1H311.81A146.3,146.3,0,0,0,165.5,150.31V1157.69A146.3,146.3,0,0,0,311.81,1304h37.38A146.3,146.3,0,0,0,495.5,1157.69V150.31A146.3,146.3,0,0,0,349.19,4"/><line class="cls-5" x1="166" y1="186.5" x2="331" y2="186.5"/><line class="cls-5" x1="166" y1="343.5" x2="331" y2="343.5"/><line class="cls-5" x1="166.5" y1="814.5" x2="331.5" y2="814.5"/><line class="cls-5" x1="165.5" y1="657.5" x2="330.5" y2="657.5"/><line class="cls-5" x1="166.5" y1="500.5" x2="331.5" y2="500.5"/><line class="cls-5" x1="165.5" y1="959.5" x2="330.5" y2="959.5"/><line class="cls-5" x1="165.5" y1="1128.5" x2="330.5" y2="1128.5"/><path class="cls-6" d="M399.41,43.86c5.58,2.81,11.37,5.23,16.83,8.29,2.61,1.46,5.08,3.14,7.6,4.75L425.53,58c.58.39,2.12,1.83.43.23,1.17,1.12,2.4,2.15,3.53,3.31,2.17,2.25,4.26,4.59,6.44,6.84,1.08,1.11,2.21,2.17,3.21,3.35.19.23.36.48.56.7-1.44-1.54-.41-.55-.09-.12.44.59.86,1.19,1.3,1.78a56.25,56.25,0,0,0,3.65,4.63,41.68,41.68,0,0,0,3.07,2.87c.43.38.85.77,1.25,1.18.22.22.42.46.64.69.84.86-.45-.62-.45-.62.47.33.77,1.27,1,1.77.44.85.88,1.7,1.33,2.53,1.73,3.2,3.5,6.37,5.25,9.55,1.63,3,3.9,5.54,5.29,8.64l-.75-1.79c1.84,4.35,2,9.17,3.54,13.62,1.82,5.23,4.86,10,7,15.07l-.76-1.79a35.31,35.31,0,0,1,2.46,8.37l-.27-2c.42,3.12.39,6.27.63,9.41.27,3.61,1.17,7.08,1.66,10.65l-.27-2a81,81,0,0,1,.47,10.22c0,3.92,3.45,7.68,7.5,7.5a7.64,7.64,0,0,0,7.5-7.5c0-2.83,0-5.67-.27-8.49-.32-3.4-1.13-6.67-1.62-10l.27,2c-.39-3-.37-5.94-.58-8.92a40.21,40.21,0,0,0-1.89-10.26c-2-5.89-5.25-11.15-7.7-16.83l.76,1.79c-1.32-3.26-1.79-6.74-2.56-10.15a30.75,30.75,0,0,0-4.56-10.52c-2.16-3.23-4-6.58-5.87-10-2-3.56-3.65-7.43-6.29-10.57A32.74,32.74,0,0,0,457.1,70c-.58-.51-1.14-1-1.67-1.58a12,12,0,0,1-.82-.92c-.19-.23-.39-.46-.57-.7l.35.46c-1.25-1.7-2.49-3.41-3.8-5.06s-2.66-3-4-4.4c-2.61-2.69-5.09-5.52-7.75-8.16-2.83-2.8-6.2-4.85-9.5-7C422.21,38,414.51,34.7,407,30.91c-3.5-1.76-8.29-1-10.26,2.69-1.8,3.41-1.05,8.38,2.69,10.26"/><path class="cls-6" d="M294,1273.33c-5-1.32-10-2.37-14.94-3.74a119.25,119.25,0,0,1-14.09-5l1.79.76a49.48,49.48,0,0,1-8.81-5.41c-1.28-.91-2.56-1.82-3.85-2.71-.77-.53-1.55-1-2.33-1.57l-.77-.5-.73-.51c-.63-.47-.47-.35.48.38a13.54,13.54,0,0,0-1.62-1.38l-1.88-1.7a49.1,49.1,0,0,0-4.79-3.84c-1.15-.8-2.4-1.45-3.61-2.16-.54-.33-1-.71-1.59-1,1.77,1,.83.68.33.21a9.75,9.75,0,0,1-.94-1c-4.38-5.23-8.69-10.49-13.52-15.3-.5-.5-1-1-1.47-1.53s-.94-1.55.16.29c-.19-.32-.45-.62-.65-.94a27.71,27.71,0,0,1-2-3.77,75.2,75.2,0,0,0-3.89-8.34,53,53,0,0,0-3.91-5.28l-1.65-2.07c-.27-.34-.54-.69-.82-1s-1.32-1.7-.49-.62-.09-.12-.21-.28l-1-1.41q-.76-1.07-1.47-2.16a35.67,35.67,0,0,1-2.76-5.08l.76,1.79a61.41,61.41,0,0,1-2.5-8.37,63.73,63.73,0,0,0-3.48-9.58c.26.59.51,1.19.76,1.79a67.74,67.74,0,0,1-3.51-12.43c-.8-3.85-5.54-6.43-9.23-5.24a7.68,7.68,0,0,0-5.23,9.23c.53,2.55,1.07,5.11,1.8,7.61a75.3,75.3,0,0,0,3.37,8.66l-.76-1.79c1.86,4.57,2.43,9.54,4.31,14.11,2.22,5.37,5.48,9.84,9.07,14.38.72.92,1.46,1.83,2.19,2.75l.54.69c.78,1-.28-.37-.35-.46.39.49.76,1,1.11,1.52a34.32,34.32,0,0,1,3,5.88c.83,1.94,1.61,3.91,2.63,5.76a29,29,0,0,0,4.94,6.37c1.63,1.64,3.32,3.18,4.79,5,1.66,2,3.39,4,5.1,6a64.15,64.15,0,0,0,4.72,5.54,36.74,36.74,0,0,0,6.45,4.4c.44.26.88.53,1.3.81,1.39.94-1.07-.92,0-.07s1.94,1.67,2.89,2.53a54.49,54.49,0,0,0,6.62,5.2c4.19,2.76,8.12,6.08,12.52,8.5a72.48,72.48,0,0,0,8.62,3.64c2.63,1,5.24,2,7.94,2.82,5.52,1.64,11.17,2.77,16.73,4.26,3.78,1,8.32-1.27,9.22-5.24a7.64,7.64,0,0,0-5.23-9.23"/></g><text class="cls-7" transform="translate(64.35 248.89) scale(1 1.11)">F</text><text class="cls-7" transform="translate(64.51 1189.26) scale(1 1.11)">E</text></g></svg>