<svg xmlns="http://www.w3.org/2000/svg" xmlns:xlink="http://www.w3.org/1999/xlink" viewBox="0 0 400 660"><defs><style>.cls-1{fill:#1529ff;}.cls-1,.cls-2,.cls-3{opacity:0.11;}.cls-2{fill:#e90006;}.cls-3{fill:#ff0;}.cls-20,.cls-21,.cls-22,.cls-4,.cls-8{fill:none;}.cls-10,.cls-11,.cls-12,.cls-13,.cls-18,.cls-19,.cls-20,.cls-4,.cls-6,.cls-7,.cls-9{stroke:#000;}.cls-10,.cls-11,.cls-12,.cls-13,.cls-18,.cls-19,.cls-20,.cls-21,.cls-22,.cls-4,.cls-6,.cls-7,.cls-8,.cls-9{stroke-miterlimit:10;}.cls-4{stroke-width:4px;}.cls-5{opacity:0.15;}.cls-6{fill:#fff;}.cls-10,.cls-21,.cls-6,.cls-7{stroke-width:2px;}.cls-7{fill:blue;}.cls-8{stroke:#ff0;stroke-width:3px;}.cls-9{fill:#4d4d4d;}.cls-10{fill:red;}.cls-11{fill:#e2ff1f;}.cls-11,.cls-12,.cls-13{stroke-width:0.5px;}.cls-12{fill:#ff841f;}.cls-13{fill:#666;}.cls-14{font-size:36.52px;font-family:HarlowSolid, Harlow Solid Italic;}.cls-15{fill:url(#linear-gradient);}.cls-16{fill:#f15a24;}.cls-17{fill:url(#linear-gradient-2);}.cls-18{fill:url(#radial-gradient);}.cls-19{fill:url(#radial-gradient-2);}.cls-21,.cls-22{stroke:#fff;opacity:0.67;}</style><linearGradient id="linear-gradient" x1="238" y1="539.5" x2="280" y2="539.5" gradientUnits="userSpaceOnUse"><stop offset="0" stop-color="#fcee21"/><stop offset="0.69" stop-color="#f48923"/><stop offset="1" stop-color="#f15a24"/></linearGradient><linearGradient id="linear-gradient-2" y1="573.5" y2="573.5" xlink:href="#linear-gradient"/><radialGradient id="radial-gradient" cx="132.61" cy="555.21" fx="216.71130921896747" r="84.11" gradientTransform="translate(31) scale(0.86 1)" gradientUnits="userSpaceOnUse"><stop offset="0.17" stop-color="#fbb03b"/><stop offset="0.24" stop-color="#f5ae3e"/><stop offset="0.32" stop-color="#e5a747"/><stop offset="0.42" stop-color="#ca9d57"/><stop offset="0.52" stop-color="#a48e6c"/><stop offset="0.6" stop-color="gray"/><stop offset="0.84" stop-color="#5e5e5e"/><stop offset="0.99" stop-color="#4d4d4d"/></radialGradient><radialGradient id="radial-gradient-2" cx="102.5" cy="556.27" r="22.89" gradientUnits="userSpaceOnUse"><stop offset="0" stop-color="#fcee21"/><stop offset="1" stop-color="#f15a24"/></radialGradient></defs><g id="Layer_5" data-name="Layer 5"><rect class="cls-1" y="221" width="401" height="218"/><rect class="cls-2" y="2" width="401" height="218"/><rect class="cls-3" x="-1" y="441" width="401" height="218"/><line class="cls-4" y1="221" x2="400" y2="219"/><line class="cls-4" y1="440" x2="400" y2="438"/></g><g id="Grenade"><path class="cls-6" d="M161.9,336.25c-16.41,2.75-28.63,20.25-33.28,15.83-.25-.24-1.83-1.85-2.37-1.41s-.14,2,1.55,6.25a109.86,109.86,0,0,0,6.44,13.55c.2,2.34.62,5.71,1.51,6.23s2.17-2.92,2.55-3.93c3.73-9.91,22-5.48,33.41-15.89,5.09-4.64,9.29-12.47,6.91-16.89S167.44,335.32,161.9,336.25Z"/><path class="cls-7" d="M131.92,351a12.51,12.51,0,0,0-6.3-3.05,3.82,3.82,0,0,0-4.66,4.65c.52,2.55,5.22,1.93,6.63,4.91L134,371a16.58,16.58,0,0,0,1.88,7.57,1.85,1.85,0,0,0,1.29,1c1.71.12,3.91-4.05,4.19-7.83.08-1.14.2-2.72-2.73-9.08C135.6,356,134,352.64,131.92,351Z"/><path class="cls-7" d="M162.84,348.47l5.29,11a22.71,22.71,0,0,0,12.7-20.35,36.54,36.54,0,0,0-23.28-1.67Q160.2,343,162.84,348.47Z"/><path class="cls-8" d="M138.93,342.28a17.76,17.76,0,0,0-.08-3.57l-.87-10,5.32,3.06c1,.59,2.39,1.16,3.28.38.42-.36.59-.93.95-1.35,1.1-1.26,3.14-.59,4.62.17l1.6-14.6,5,4.79a4.93,4.93,0,0,0,2.11,1.4,4.6,4.6,0,0,0,1.95-.06,47.26,47.26,0,0,0,7.13-1.85,14.54,14.54,0,0,0,.35,7.82"/><path class="cls-8" d="M152.27,369.75a19.3,19.3,0,0,1,2.8,2.23l7.41,6.71.77-6.09c.15-1.17.52-2.6,1.67-2.85a11.52,11.52,0,0,1,1.66.06c1.66-.12,2.36-2.14,2.66-3.78l12.6,7.54-.78-6.91a5,5,0,0,1,.16-2.53,4.68,4.68,0,0,1,1.22-1.52,46.26,46.26,0,0,1,5.79-4.56,14.43,14.43,0,0,1-6-5"/><path class="cls-6" d="M236.68,368.2c-18.09,3-31.56,22.33-36.69,17.45-.27-.26-2-2-2.61-1.55s-.15,2.17,1.7,6.89a122.73,122.73,0,0,0,7.1,14.93c.23,2.59.68,6.31,1.67,6.87,1.14.65,2.39-3.21,2.81-4.32,4.11-10.93,24.26-6.05,36.84-17.52,5.61-5.12,10.24-13.75,7.61-18.62S242.79,367.18,236.68,368.2Z"/><path class="cls-7" d="M203.62,384.44a13.76,13.76,0,0,0-6.93-3.36,4.21,4.21,0,0,0-5.15,5.13c.57,2.81,5.76,2.12,7.32,5.41q3.54,7.47,7.1,14.93A18.7,18.7,0,0,0,208,414.9a2.11,2.11,0,0,0,1.42,1.1c1.89.13,4.32-4.47,4.63-8.64.09-1.25.22-3-3-10C207.68,390,205.94,386.27,203.62,384.44Z"/><path class="cls-7" d="M237.72,381.67l5.83,12.14a25,25,0,0,0,14-22.43,40.32,40.32,0,0,0-25.66-1.85Q234.8,375.61,237.72,381.67Z"/><path class="cls-8" d="M211.36,374.85a20,20,0,0,0-.09-3.94l-1-11,5.86,3.38c1.13.65,2.64,1.27,3.62.42.46-.4.65-1,1.05-1.49,1.21-1.39,3.46-.65,5.1.18l1.76-16.1,5.55,5.28a5.41,5.41,0,0,0,2.33,1.55,5,5,0,0,0,2.14-.06,50.57,50.57,0,0,0,7.87-2,16.08,16.08,0,0,0,.38,8.62"/><path class="cls-8" d="M226.06,405.14a20.79,20.79,0,0,1,3.09,2.45l8.17,7.4.85-6.71c.16-1.29.57-2.87,1.84-3.14a12.49,12.49,0,0,1,1.83.06c1.84-.12,2.61-2.36,2.93-4.17l13.9,8.32-.86-7.62a5.48,5.48,0,0,1,.17-2.79,5.16,5.16,0,0,1,1.35-1.67,51.49,51.49,0,0,1,6.38-5,16.06,16.06,0,0,1-6.64-5.52"/><path class="cls-6" d="M255.85,290c-18.1,3-31.57,22.33-36.69,17.45-.28-.27-2-2-2.62-1.55s-.15,2.16,1.71,6.88a121.92,121.92,0,0,0,7.1,14.94c.22,2.58.68,6.3,1.67,6.87s2.39-3.22,2.8-4.33c4.12-10.93,24.27-6,36.84-17.52,5.61-5.12,10.25-13.74,7.62-18.62S262,289,255.85,290Z"/><path class="cls-7" d="M222.79,306.23a13.71,13.71,0,0,0-6.94-3.37,4.61,4.61,0,0,0-3.19.45,4.74,4.74,0,0,0-2,4.68c.58,2.81,5.76,2.13,7.32,5.41q3.55,7.47,7.1,14.94a20,20,0,0,0,.33,3.29,18.85,18.85,0,0,0,1.75,5.05,2.06,2.06,0,0,0,1.42,1.1c1.88.14,4.31-4.46,4.62-8.63.1-1.26.23-3-3-10C226.84,311.77,225.1,308.06,222.79,306.23Z"/><path class="cls-7" d="M256.89,303.46l5.83,12.14a25,25,0,0,0,14-22.44,40.28,40.28,0,0,0-25.67-1.84Q254,297.38,256.89,303.46Z"/><path class="cls-8" d="M230.53,296.64a20.89,20.89,0,0,0-.1-3.95l-1-11,5.87,3.38c1.12.65,2.63,1.28,3.61.42A13.34,13.34,0,0,0,240,284c1.2-1.38,3.45-.65,5.09.18l1.76-16.09,5.56,5.28a5.53,5.53,0,0,0,2.32,1.55,5.38,5.38,0,0,0,2.15-.06,53.55,53.55,0,0,0,7.87-2.05,15.9,15.9,0,0,0,.38,8.62"/><path class="cls-8" d="M245.23,326.93a20.08,20.08,0,0,1,3.08,2.45l8.18,7.4.84-6.72c.16-1.29.58-2.87,1.85-3.14A16.06,16.06,0,0,1,261,327c1.83-.12,2.6-2.36,2.93-4.16l13.89,8.31-.86-7.61a5.58,5.58,0,0,1,.17-2.79,5.22,5.22,0,0,1,1.35-1.68,51.79,51.79,0,0,1,6.39-5,15.9,15.9,0,0,1-6.64-5.51"/></g><g id="Rocket"><path class="cls-9" d="M127.26,151.1a8.66,8.66,0,0,1-5.19,7.93l-6.22-19a7.48,7.48,0,0,1,4.48,0,7.61,7.61,0,0,1,4,3.16"/><path class="cls-6" d="M300.42,110.14,288.53,73.82Z"/><path class="cls-6" d="M283.61,74.69s-137.85,57.77-151.17,49.47-8.56-6.17-16.91-7.87a40.12,40.12,0,0,0-17.47.35l-.45,4a32.38,32.38,0,0,1,14.74,4.11c5.77,3.26,9.75,7,10.66,9.81l8.09,24.73a29.67,29.67,0,0,1-2,12.1,30.53,30.53,0,0,1-11.72,14.26l3.36,3.14A36.83,36.83,0,0,0,138,176c3.88-5.36.42-2.38,6.09-13.91s101.2-33.12,151.8-49.68c20.29-5.81,30.16-21.63,27.47-29.84S303.4,67.38,283.61,74.69Z"/><path class="cls-10" d="M131.31,125.26a30.37,30.37,0,0,0-11-6.7c-1.2-.42-2.39-.46-5.9-1.17a40.31,40.31,0,0,0-17.47.34c-.15,1.35-.3,2.69-.46,4a32.16,32.16,0,0,1,14.75,4.11c5.77,3.25,9.74,7,10.66,9.8L130,160.41a29.71,29.71,0,0,1-2,12.11,30.54,30.54,0,0,1-11.72,14.25l3.36,3.14A36.77,36.77,0,0,0,136.9,177c2.34-3.23,2-3.43,2.63-5.6a54.7,54.7,0,0,1,3.47-8.31c1.06-2.15,1-4.78-2.57-16.26C136.62,134.69,134.65,128.54,131.31,125.26Z"/><path class="cls-10" d="M295.6,90.87l5.73,17.49a29.45,29.45,0,0,0,21.18-26.3,36.22,36.22,0,0,0-32.63-8.68Z"/><path class="cls-11" d="M116,140.54c-2.69.88-22.68,3.5-22.68,3.5L106,146.19,76.78,152.6l19.58.67-36.5,15.87,37.25-9-16.33,9.27,21.52-7.05L88.25,174l32.88-17.84L115.85,140"/><path class="cls-12" d="M118.07,146.07c-1.07.35-9,1.39-9,1.39l5,.86-11.61,2.54,7.79.27-14.52,6.31,14.82-3.6-6.5,3.69,8.56-2.8L107,159.37l13.07-7.09-2.1-6.42"/><path class="cls-13" d="M191.47,143.56l4-1.32a44.28,44.28,0,0,1-9.69-29.59l-4,1.32a44.2,44.2,0,0,0,9.68,29.59Z"/><path class="cls-13" d="M200.3,140.68l4-1.32a44.25,44.25,0,0,1-9.68-29.6l-4,1.32a44.19,44.19,0,0,0,9.69,29.6Z"/><text class="cls-14" transform="translate(96.73 50.54) rotate(0.07) scale(0.75 1)">Quantum Torpedos</text><text class="cls-14" transform="translate(87.37 256.61) rotate(0.07) scale(0.75 1)">Concussion Grenades</text><rect class="cls-15" x="238" y="538" width="42" height="3"/><rect class="cls-16" x="308" y="538" width="42" height="3"/><rect class="cls-16" x="308" y="572" width="42" height="3"/><rect class="cls-17" x="238" y="572" width="42" height="3"/><path class="cls-18" d="M202,545.43v-9.49H182.24v1.72H140a28.68,28.68,0,0,0-25.8-16.54L91.92,521a28.73,28.73,0,0,0-28.84,28.62Q63,556.33,63,563a28.74,28.74,0,0,0,28.68,29H114a28.66,28.66,0,0,0,25.45-15.52h42.75v1.72H202v-9.49H182.24v1.73H141.81a29.23,29.23,0,0,0,.91-7.23V549.92a28.91,28.91,0,0,0-.68-6.22h40.2v1.73Z"/><ellipse class="cls-19" cx="102.5" cy="556.27" rx="23" ry="22.77"/><path class="cls-20" d="M187.82,536.69c-1.41,2.21-2.89,4.4-4.41,6.56A14.61,14.61,0,0,1,182,545"/><path class="cls-20" d="M194.57,536.9a16.81,16.81,0,0,0-3,3.33l-3,4"/><path class="cls-20" d="M200.3,536.73a15.42,15.42,0,0,1-1.57,2.59l-.52.75-2.34,3.33a1.75,1.75,0,0,1-1.05.85"/><line class="cls-20" x1="178.32" y1="538.72" x2="178.32" y2="542.18"/><line class="cls-20" x1="178.58" y1="571.69" x2="178.58" y2="574.58"/><path class="cls-20" d="M187.65,569.05q-2.13,3.32-4.41,6.56a14.7,14.7,0,0,1-1.4,1.77"/><path class="cls-20" d="M194.84,569.47a16.51,16.51,0,0,0-3,3.33l-3,4"/><path class="cls-20" d="M200.33,570.05a16.11,16.11,0,0,1-1.57,2.59l-.53.75-2.33,3.33a1.75,1.75,0,0,1-1.05.85"/><path class="cls-21" d="M105.66,538.76a16.56,16.56,0,0,1,11.91,7.62c1.86,3,2.68,6.56,3.47,10"/><path class="cls-22" d="M99.28,574.46a16.53,16.53,0,0,1-11.9-7.62c-1.86-3-2.68-6.55-3.48-10"/><path class="cls-11" d="M202.6,546.31c1.06,0,8.47,2.37,8.47,2.37l-4.22-3.74L218,546.87l-6.87-4.22L226,540.42l-14.31-1.94,6.91-2.28-8.49-.05,6.39-4.13-13.81,4.08-.07,10.55"/><path class="cls-12" d="M202.53,542.65c.43,0,3.37.94,3.37.94l-1.68-1.48,4.43.76-2.73-1.68,5.91-.88-5.69-.77,2.75-.91-3.38,0,2.54-1.64-5.49,1.62,0,4.19"/><path class="cls-11" d="M202.46,578.25c1.06,0,8.47,2.37,8.47,2.37l-4.22-3.73,11.12,1.92L211,574.59l14.86-2.22-14.31-2,6.91-2.27-8.48-.06,6.39-4.13-13.82,4.09-.06,10.54"/><path class="cls-12" d="M202.4,574.59c.42,0,3.36.95,3.36.95l-1.67-1.49,4.42.77-2.73-1.68,5.91-.88-5.69-.78,2.75-.9-3.38,0,2.55-1.65-5.5,1.63,0,4.19"/><text class="cls-14" transform="translate(113.24 495.71) rotate(0.07) scale(0.75 1)">Gamma Lazers</text></g></svg>